<?xml version="1.0" encoding="utf-8"?>
<!-- Generator: Adobe Illustrator 22.0.1, SVG Export Plug-In . SVG Version: 6.00 Build 0)  -->
<svg version="1.1" id="Laag_1" xmlns="http://www.w3.org/2000/svg" xmlns:xlink="http://www.w3.org/1999/xlink" x="0px" y="0px"
	 viewBox="0 0 141.7 141.7" style="enable-background:new 0 0 141.7 141.7;" xml:space="preserve">
<style type="text/css">
	.st0{fill:none;stroke:#FFFFFF;stroke-width:9.2231;stroke-linecap:round;stroke-linejoin:round;stroke-miterlimit:10;}
</style>
<path class="st0" d="M85.5,59.5c7.7-4.9,12.7-13.5,12.7-23.3C98.3,21,85.9,8.6,70.6,8.6C55.3,8.6,42.9,21,42.9,36.3
	c0,9.8,5.1,18.3,12.7,23.3c-18,1.6-32.2,16.8-32.2,35.3v28.7l0.1,0.5l2,0.6c18.6,5.8,34.8,7.8,48.2,7.8c26,0,41.1-7.4,42-7.9
	l1.8-0.9h0.2V94.8C117.8,76.3,103.6,61.1,85.5,59.5z"/>
</svg>
