<?xml version="1.0" encoding="utf-8"?>
<!-- Generator: Adobe Illustrator 22.0.1, SVG Export Plug-In . SVG Version: 6.00 Build 0)  -->
<svg version="1.1" id="Laag_1" xmlns="http://www.w3.org/2000/svg" xmlns:xlink="http://www.w3.org/1999/xlink" x="0px" y="0px"
	 viewBox="0 0 141.7 141.7" style="enable-background:new 0 0 141.7 141.7;" xml:space="preserve">
<style type="text/css">
	.st0{fill:#B2B2B2;stroke:#B2B2B2;stroke-width:10;stroke-miterlimit:10;}
</style>
<path class="st0" d="M129.8,35.8c0,0-3.9-11.6-22.5-15.4c-15.7-3.2-30.8,9.9-35.2,14.2c-0.7,0.7-1.8,0.7-2.5,0
	c-4.4-4.2-19.5-17.4-35.2-14.2c-18.6,3.9-22.5,15.4-22.5,15.4s-10.4,20.4,3,37c12,14.9,47.6,48.1,54.7,54.7c0.7,0.7,1.8,0.7,2.5,0
	c7.1-6.6,42.7-39.8,54.7-54.7C140.3,56.3,129.8,35.8,129.8,35.8z"/>
</svg>
