<?xml version="1.0" encoding="utf-8"?>
<!-- Generator: Adobe Illustrator 22.0.1, SVG Export Plug-In . SVG Version: 6.00 Build 0)  -->
<svg version="1.1" id="Laag_1" xmlns="http://www.w3.org/2000/svg" xmlns:xlink="http://www.w3.org/1999/xlink" x="0px" y="0px"
	 viewBox="0 0 141.7 141.7" style="enable-background:new 0 0 141.7 141.7;" xml:space="preserve">
<style type="text/css">
	.st0{fill:#B2B2B2;}
</style>
<path class="st0" d="M119.8,53.4l-3.4-8.1c0,0,7.9-17.9,7.2-18.6l-10.5-10.2c-0.7-0.7-18.6,7.5-18.6,7.5l-8.3-3.3
	c0,0-7.3-18.1-8.3-18.1H63.1c-1,0-7.8,18.2-7.8,18.2l-8.2,3.3c0,0-18.3-7.8-19-7.1L17.7,27.1c-0.7,0.7,7.6,18.2,7.6,18.2l-3.4,8.1
	c0,0-18.5,7.1-18.5,8.1v14.5c0,1,18.6,7.6,18.6,7.6l3.4,8.1c0,0-7.9,17.9-7.2,18.6l10.5,10.3c0.7,0.7,18.6-7.5,18.6-7.5l8.3,3.3
	c0,0,7.3,18.1,8.3,18.1h14.8c1,0,7.8-18.2,7.8-18.2l8.3-3.3c0,0,18.2,7.8,18.9,7.1l10.5-10.3c0.7-0.7-7.6-18.2-7.6-18.2l3.4-8.1
	c0,0,18.5-7.1,18.5-8.1V61C138.4,60,119.8,53.4,119.8,53.4z M92.5,68.5c0,11.7-9.7,21.2-21.6,21.2c-11.9,0-21.6-9.5-21.6-21.2
	c0-11.7,9.7-21.2,21.6-21.2C82.8,47.3,92.5,56.8,92.5,68.5z"/>
</svg>
