<?xml version="1.0" encoding="utf-8"?>
<!-- Generator: Adobe Illustrator 22.0.1, SVG Export Plug-In . SVG Version: 6.00 Build 0)  -->
<svg version="1.1" id="Laag_1" xmlns="http://www.w3.org/2000/svg" xmlns:xlink="http://www.w3.org/1999/xlink" x="0px" y="0px"
	 viewBox="0 0 141.7 141.7" style="enable-background:new 0 0 141.7 141.7;" xml:space="preserve">
<style type="text/css">
	.st0{fill:#F6A22E;}
</style>
<path class="st0" d="M70.2,1.3c-24.4,0-44.1,18.9-44.1,42.2c0,42.2,44.1,92.8,44.1,92.8s44.1-50.6,44.1-92.8
	C114.3,20.2,94.5,1.3,70.2,1.3z M70.2,69.3c-14.9,0-27-11.6-27-25.8c0-14.3,12.1-25.8,27-25.8c14.9,0,27,11.6,27,25.8
	C97.2,57.8,85.1,69.3,70.2,69.3z M53.1,43.5c0,9,7.6,16.4,17.1,16.4c9.4,0,17.1-7.3,17.1-16.4c0-9-7.7-16.4-17.1-16.4
	C60.7,27.1,53.1,34.5,53.1,43.5z"/>
</svg>
