<?xml version="1.0" encoding="utf-8"?>
<!-- Generator: Adobe Illustrator 22.0.1, SVG Export Plug-In . SVG Version: 6.00 Build 0)  -->
<svg version="1.1" id="Laag_1" xmlns="http://www.w3.org/2000/svg" xmlns:xlink="http://www.w3.org/1999/xlink" x="0px" y="0px"
	 viewBox="0 0 2441.7 590.5" style="enable-background:new 0 0 2441.7 590.5;" xml:space="preserve">
<style type="text/css">
	.st0{fill:#FFFFFF;}
</style>
<g>
	<path class="st0" d="M493.7,308.8c-7.8-2.4-16.1-5.3-24.9-8.8c-8.8-3.5-16.7-7.8-23.9-12.7c-7.2-5-13.1-10.8-17.8-17.4
		c-4.7-6.7-7.1-14.3-7.1-22.9c0-9.9,2.2-18.7,6.7-26.5c4.4-7.7,10.2-14.2,17.2-19.6c7.1-5.4,15-9.4,23.7-12.2
		c8.7-2.7,17.4-4.1,26.1-4.1c5.7,0,11.7,0.5,17.8,1.4c6.1,0.9,12.2,2.5,18.2,4.9c6,2.4,11.8,5.6,17.4,9.8
		c5.6,4.2,10.8,9.5,15.5,16.1c1.6,2.4,2.4,5.1,2.4,8.2c0,3.7-1.1,6.7-3.3,9.2c-2.2,2.5-5.2,3.7-8.8,3.7c-4.7,0-8.4-2.1-11-6.3
		c-3.1-5.2-6.8-9.3-11-12.3c-4.2-3-8.4-5.3-12.7-6.9c-4.3-1.6-8.6-2.5-12.9-2.9c-4.3-0.4-8.2-0.6-11.6-0.6c-5.2,0-10.7,0.7-16.5,2
		c-5.8,1.3-11,3.4-15.9,6.3c-4.8,2.9-8.8,6.7-12,11.6c-3.1,4.8-4.7,10.9-4.7,18.2c0,5.2,2.3,9.9,6.9,14.1c4.6,4.2,10.1,7.8,16.7,11
		c6.5,3.1,13.3,5.9,20.4,8.2c7.1,2.4,13.1,4.4,18,6.3c9.9,3.7,18.9,7.6,27,11.8c8.1,4.2,15.1,9.1,21,14.9c5.9,5.7,10.4,12.4,13.7,20
		c3.3,7.6,4.9,16.6,4.9,27c0,10.5-2.2,20.3-6.7,29.4c-4.4,9.1-10.4,17.1-17.8,23.7c-7.4,6.7-16,11.9-25.7,15.7
		c-9.7,3.8-19.7,5.7-30.2,5.7c-7.3,0-15-1-22.9-2.9c-8-2-15.5-4.7-22.7-8.2c-7.2-3.5-13.7-7.8-19.6-12.7c-5.9-5-10.4-10.4-13.5-16.5
		c-1.3-2.1-2-4.2-2-6.3c0-3.1,1.2-6,3.7-8.6c2.5-2.6,5.5-3.9,9.2-3.9c5,0,8.6,2.1,11,6.3c2.4,4.7,5.8,8.8,10.4,12.3
		c4.6,3.5,9.6,6.5,15.1,9c5.5,2.5,11,4.3,16.7,5.5c5.6,1.2,10.6,1.8,15.1,1.8c7.1,0,14-1.3,20.8-3.9c6.8-2.6,12.7-6.1,17.8-10.6
		c5.1-4.4,9.2-9.7,12.3-15.9c3.1-6.1,4.7-12.7,4.7-19.8c0-7.1-1.4-13.2-4.1-18.4c-2.7-5.2-6.6-9.8-11.6-13.7
		c-5-3.9-10.8-7.4-17.6-10.6C508.9,314.3,501.6,311.4,493.7,308.8z"/>
	<path class="st0" d="M613.6,196.3c0-3.4,1.2-6.3,3.5-8.6c2.4-2.4,5.2-3.5,8.6-3.5c3.4,0,6.3,1.2,8.6,3.5c2.4,2.4,3.5,5.2,3.5,8.6
		v47.8h26.1c3.4,0,6.3,1.2,8.7,3.5c2.4,2.4,3.6,5.2,3.6,8.6c0,3.4-1.2,6.3-3.6,8.6s-5.3,3.5-8.7,3.5H638v154c0,3.4-1.2,6.3-3.5,8.6
		c-2.3,2.4-5.1,3.5-8.5,3.5s-6.2-1.2-8.5-3.5c-2.3-2.4-3.5-5.2-3.5-8.6v-154h-26.1c-3.4,0-6.3-1.2-8.7-3.5c-2.4-2.4-3.6-5.2-3.6-8.6
		c0-3.4,1.2-6.3,3.5-8.6c2.4-2.4,5.2-3.5,8.6-3.5h25.9V196.3z"/>
	<path class="st0" d="M688.9,256.7c0-3.4,1.2-6.3,3.5-8.6c2.4-2.4,5.2-3.5,8.6-3.5c3.4,0,6.3,1.2,8.6,3.5c2.4,2.4,3.5,5.2,3.5,8.6
		V364c0,6.3,1.2,12.2,3.7,17.8c2.5,5.6,5.8,10.5,10,14.7c4.2,4.2,9.1,7.4,14.7,9.8c5.6,2.4,11.6,3.5,17.8,3.5
		c6.3,0,12.1-1.2,17.6-3.5c5.5-2.4,10.3-5.5,14.3-9.4c4-3.9,7.3-8.6,9.8-13.9c2.5-5.4,3.9-11,4.1-17.1V256.7c0-3.4,1.2-6.3,3.5-8.6
		c2.4-2.4,5.2-3.5,8.6-3.5c3.4,0,6.3,1.2,8.6,3.5c2.4,2.4,3.5,5.2,3.5,8.6v165.8c0,3.4-1.2,6.3-3.5,8.6c-2.4,2.4-5.2,3.5-8.6,3.5
		c-3.4,0-6.3-1.2-8.6-3.5c-2.4-2.4-3.5-5.2-3.5-8.6v-5.1c-6,5.2-12.9,9.4-20.8,12.5c-7.8,3.1-16.2,4.7-25.1,4.7
		c-9.7,0-18.8-1.8-27.4-5.5c-8.6-3.7-16.1-8.7-22.5-15.1c-6.4-6.4-11.4-13.9-15.1-22.5c-3.7-8.6-5.5-17.8-5.5-27.4V256.7z"/>
	<path class="st0" d="M1012.2,196.3c0-3.4,1.2-6.3,3.5-8.6c2.4-2.4,5.2-3.5,8.6-3.5c3.4,0,6.3,1.2,8.6,3.5c2.4,2.4,3.5,5.2,3.5,8.6
		v226.1c0,3.4-1.2,6.3-3.5,8.6c-2.4,2.4-5.2,3.5-8.6,3.5c-3.4,0-6.3-1.2-8.6-3.5c-2.4-2.4-3.5-5.2-3.5-8.6V404l-3.5,3.5
		c-8.6,8.4-18.7,14.9-30.2,19.6c-11.5,4.7-23.6,7.1-36.4,7.1c-13.3,0-25.7-2.5-37.2-7.4c-11.5-5-21.5-11.8-30-20.4
		c-8.5-8.6-15.2-18.6-20.2-30c-5-11.4-7.4-23.4-7.4-36.3c0-13.1,2.5-25.3,7.6-36.8c5.1-11.5,12-21.6,20.6-30.2
		c8.6-8.6,18.6-15.5,30-20.6c11.4-5.1,23.3-7.6,35.9-7.6c14.6,0.5,28,4.2,40,11.2c12,6.9,22.3,15.1,31,24.5V196.3z M1012.2,340.1
		c-0.5-10.2-2.7-19.6-6.5-28.2c-3.8-8.6-8.8-16.1-15.1-22.3c-6.3-6.3-13.6-11.2-21.9-14.7c-8.4-3.5-17.2-5.3-26.6-5.3
		c-9.7,0-18.8,1.8-27.4,5.5c-8.6,3.7-16.1,8.7-22.5,15.1c-6.4,6.4-11.4,13.9-15.1,22.5c-3.7,8.6-5.5,17.8-5.5,27.4
		c0,9.7,1.8,18.7,5.5,27.2c3.7,8.5,8.7,15.9,15.1,22.3c6.4,6.4,13.9,11.4,22.5,15.1c8.6,3.7,17.8,5.5,27.4,5.5
		c9.7,0,18.7-1.8,27.2-5.5c8.5-3.7,15.9-8.7,22.3-15.1c6.4-6.4,11.4-13.8,15.1-22.3C1010.4,358.9,1012.2,349.8,1012.2,340.1z"/>
	<path class="st0" d="M1076.5,351.5c1.3,8.4,4,16.1,8.2,23.3c4.2,7.2,9.3,13.4,15.5,18.6c6.1,5.2,13.1,9.3,21,12.3
		c7.8,3,16.1,4.5,24.7,4.5c9.7,0,18.7-1.8,27-5.3c8.4-3.5,15.8-8.4,22.3-14.7c2.4-2.4,5.2-3.5,8.6-3.5s6.3,1.2,8.6,3.5
		c2.4,2.4,3.5,5.2,3.5,8.6c0,3.4-1.2,6.3-3.5,8.6c-8.6,9.7-18.4,16.5-29.2,20.6c-10.8,4.1-23.3,6.1-37.4,6.1
		c-13.1,0-25.3-2.4-36.6-7.1c-11.4-4.7-21.4-11.2-30-19.6c-8.6-8.4-15.4-18.3-20.4-29.8c-5-11.5-7.4-24-7.4-37.6
		c0-13.1,2.4-25.3,7.2-36.6c4.8-11.4,11.5-21.3,20-29.8c8.5-8.5,18.5-15.3,30.2-20.4c11.6-5.1,24.2-7.9,37.8-8.4
		c12.3,0,24.1,2.5,35.5,7.4c11.4,5,21.4,11.8,30,20.4c8.6,8.6,15.5,18.6,20.8,30c5.2,11.4,7.8,23.6,7.8,36.6c0,3.9-1.3,6.9-3.9,9
		c-2.6,2.1-5.4,3.1-8.2,3.1H1076.5z M1215.3,327.2c-1.6-8.1-4.4-15.7-8.6-22.7s-9.3-13.1-15.5-18.2c-6.1-5.1-13.1-9.1-20.8-12.2
		c-7.7-3-15.9-4.5-24.5-4.5c-8.6,0-16.8,1.5-24.5,4.5c-7.7,3-14.6,7.1-20.8,12.2c-6.1,5.1-11.2,11.2-15.3,18.2
		c-4.1,7.1-6.9,14.6-8.4,22.7H1215.3z"/>
	<path class="st0" d="M1258.8,256.3c0-3.4,1.2-6.3,3.5-8.6c2.4-2.4,5.2-3.5,8.6-3.5s6.3,1.2,8.6,3.5c2.4,2.4,3.5,5.2,3.5,8.6v5.1
		c6-5.2,12.9-9.4,20.8-12.5c7.8-3.1,16.2-4.7,25.1-4.7c9.7,0,18.8,1.8,27.4,5.5c8.6,3.7,16.1,8.7,22.5,15.1
		c6.4,6.4,11.4,13.9,15.1,22.5c3.7,8.6,5.5,17.8,5.5,27.4v107.8c0,3.4-1.2,6.3-3.5,8.6c-2.4,2.4-5.2,3.5-8.6,3.5s-6.3-1.2-8.6-3.5
		c-2.4-2.4-3.5-5.2-3.5-8.6V314.7c0-6.3-1.2-12.2-3.7-17.8c-2.5-5.6-5.8-10.5-10-14.7c-4.2-4.2-9.1-7.4-14.7-9.8
		c-5.6-2.4-11.6-3.5-17.8-3.5c-6.3,0-12.2,1.2-17.6,3.5c-5.5,2.4-10.3,5.5-14.5,9.4c-4.2,3.9-7.5,8.6-9.8,13.9
		c-2.4,5.4-3.7,11-3.9,17.1v109.7c0,3.4-1.2,6.3-3.5,8.6c-2.4,2.4-5.2,3.5-8.6,3.5s-6.3-1.2-8.6-3.5c-2.4-2.4-3.5-5.2-3.5-8.6V256.3
		z"/>
	<path class="st0" d="M1444.6,196.3c0-3.4,1.2-6.3,3.5-8.6c2.4-2.4,5.2-3.5,8.6-3.5c3.4,0,6.3,1.2,8.6,3.5c2.4,2.4,3.5,5.2,3.5,8.6
		v47.8h26.1c3.4,0,6.3,1.2,8.7,3.5c2.4,2.4,3.6,5.2,3.6,8.6c0,3.4-1.2,6.3-3.6,8.6c-2.4,2.4-5.3,3.5-8.7,3.5h-26.1v154
		c0,3.4-1.2,6.3-3.5,8.6c-2.3,2.4-5.1,3.5-8.5,3.5s-6.2-1.2-8.5-3.5c-2.3-2.4-3.5-5.2-3.5-8.6v-154h-26.1c-3.4,0-6.3-1.2-8.7-3.5
		c-2.4-2.4-3.6-5.2-3.6-8.6c0-3.4,1.2-6.3,3.5-8.6c2.4-2.4,5.2-3.5,8.6-3.5h25.9V196.3z"/>
	<path class="st0" d="M1519.8,196.3c0-3.4,1.2-6.3,3.5-8.6c2.4-2.4,5.2-3.5,8.6-3.5c3.4,0,6.3,1.2,8.6,3.5c2.4,2.4,3.5,5.2,3.5,8.6
		v65.8c6-5.2,12.9-9.4,20.8-12.5c7.8-3.1,16.2-4.7,25.1-4.7c9.7,0,18.8,1.8,27.4,5.5c8.6,3.7,16.1,8.7,22.5,15.1
		c6.4,6.4,11.4,13.9,15.1,22.5c3.7,8.6,5.5,17.8,5.5,27.4v107c0,3.4-1.2,6.3-3.5,8.6c-2.4,2.4-5.2,3.5-8.6,3.5
		c-3.4,0-6.3-1.2-8.6-3.5c-2.4-2.4-3.5-5.2-3.5-8.6v-107c0-6.3-1.2-12.2-3.7-17.8c-2.5-5.6-5.8-10.5-10-14.7
		c-4.2-4.2-9.1-7.5-14.7-9.8c-5.6-2.4-11.6-3.5-17.8-3.5c-6.3,0-12.2,1.2-17.6,3.5c-5.5,2.4-10.3,5.5-14.5,9.4
		c-4.2,3.9-7.4,8.6-9.8,13.9c-2.4,5.4-3.7,11-3.9,17v109c0,3.7-1.1,6.6-3.3,8.8c-2.2,2.2-5.2,3.3-8.8,3.3c-3.4,0-6.2-1.2-8.4-3.5
		c-2.2-2.4-3.5-5.2-3.7-8.6V196.3z"/>
	<path class="st0" d="M1771.4,244.9c12.5,0,24.5,2.5,35.9,7.6c11.4,5.1,21.4,11.9,30,20.6c8.6,8.6,15.5,18.7,20.6,30.2
		c5.1,11.5,7.6,23.8,7.6,36.8c0,12.8-2.5,24.9-7.4,36.3c-5,11.4-11.7,21.4-20.2,30c-8.5,8.6-18.5,15.4-30,20.4
		c-11.5,5-23.9,7.4-37.2,7.4c-13.1,0-25.3-2.4-36.6-7.1c-11.4-4.7-21.4-11.2-30-19.6c-8.6-8.4-15.4-18.3-20.4-29.8
		c-5-11.5-7.4-24-7.4-37.6c0-13.1,2.4-25.3,7.2-36.6c4.8-11.4,11.5-21.3,20-29.8c8.5-8.5,18.5-15.3,30.2-20.4
		C1745.2,248.2,1757.8,245.4,1771.4,244.9z M1770.7,269.6c-9.7,0-18.7,1.8-27.2,5.5c-8.5,3.7-15.9,8.7-22.3,15.1
		c-6.4,6.4-11.4,13.9-15.1,22.5c-3.7,8.6-5.5,17.8-5.5,27.4c0,9.7,1.8,18.7,5.5,27.2c3.7,8.5,8.7,15.9,15.1,22.3
		c6.4,6.4,13.8,11.4,22.3,15.1c8.5,3.7,17.6,5.5,27.2,5.5c9.7,0,18.8-1.8,27.4-5.5c8.6-3.7,16.1-8.7,22.5-15.1
		c6.4-6.4,11.4-13.8,15.1-22.3c3.7-8.5,5.5-17.6,5.5-27.2c0-9.7-1.8-18.8-5.5-27.4c-3.7-8.6-8.7-16.1-15.1-22.5
		c-6.4-6.4-13.9-11.4-22.5-15.1C1789.5,271.4,1780.3,269.6,1770.7,269.6z"/>
	<path class="st0" d="M1880.8,256.7c0-3.4,1.2-6.3,3.5-8.6c2.4-2.4,5.2-3.5,8.6-3.5c3.4,0,6.3,1.2,8.6,3.5c2.4,2.4,3.5,5.2,3.5,8.6
		V364c0,6.3,1.2,12.2,3.7,17.8c2.5,5.6,5.8,10.5,10,14.7c4.2,4.2,9.1,7.4,14.7,9.8c5.6,2.4,11.6,3.5,17.8,3.5
		c6.3,0,12.1-1.2,17.6-3.5c5.5-2.4,10.3-5.5,14.3-9.4c4-3.9,7.3-8.6,9.8-13.9c2.5-5.4,3.9-11,4.1-17.1V256.7c0-3.4,1.2-6.3,3.5-8.6
		c2.4-2.4,5.2-3.5,8.6-3.5c3.4,0,6.3,1.2,8.6,3.5c2.4,2.4,3.5,5.2,3.5,8.6v165.8c0,3.4-1.2,6.3-3.5,8.6c-2.4,2.4-5.2,3.5-8.6,3.5
		c-3.4,0-6.3-1.2-8.6-3.5c-2.4-2.4-3.5-5.2-3.5-8.6v-5.1c-6,5.2-12.9,9.4-20.8,12.5c-7.8,3.1-16.2,4.7-25.1,4.7
		c-9.7,0-18.8-1.8-27.4-5.5c-8.6-3.7-16.1-8.7-22.5-15.1c-6.4-6.4-11.4-13.9-15.1-22.5c-3.7-8.6-5.5-17.8-5.5-27.4V256.7z"/>
	<path class="st0" d="M2046.2,293.9c0-9.1,1.8-16.9,5.5-23.1c3.7-6.3,8.5-11.4,14.5-15.3c6-3.9,12.8-6.7,20.4-8.4
		c7.6-1.7,15.1-2.5,22.7-2.5c6.3,0,12.9,0.7,20,2.2c7.1,1.4,13.6,3.6,19.6,6.5c6,2.9,11,6.4,14.9,10.6c3.9,4.2,5.9,9.1,5.9,14.9
		c0,2.9-1,5.7-2.9,8.4c-2,2.7-5.2,4.1-9.6,4.1c-5,0-8.8-2.9-11.4-8.6c-2.4-5-6.9-8.7-13.7-11.2c-6.8-2.5-14.4-3.7-22.7-3.7
		c-4.4,0-9,0.3-13.5,1c-4.6,0.7-8.7,2-12.3,3.9c-3.7,2-6.7,4.6-9.2,8c-2.5,3.4-3.7,7.8-3.7,13.3c0,3.9,1.2,7.3,3.7,10.2
		s5.6,5.3,9.4,7.2c3.8,2,8,3.5,12.5,4.5c4.6,1,8.9,2,13.1,2.7c9.7,1.6,18.7,3.9,27.2,6.9c8.5,3,15.9,6.9,22.3,11.6
		c6.4,4.7,11.5,10.3,15.3,16.9c3.8,6.5,5.7,14.1,5.7,22.7c0,8.6-1.8,16.5-5.5,23.7c-3.7,7.2-8.7,13.3-15.1,18.4
		c-6.4,5.1-13.9,9-22.5,11.8c-8.6,2.7-17.8,4.1-27.4,4.1c-16.5,0-30.9-3.8-43.3-11.4c-12.4-7.6-20.7-18-24.9-31.3
		c-0.3-0.8-0.4-2-0.4-3.5c0-3.4,1.1-6.4,3.3-9c2.2-2.6,5.2-3.9,8.8-3.9c2.9,0,5.4,0.8,7.6,2.5c2.2,1.7,4,4,5.3,6.9
		c3.4,8.4,9.2,14.7,17.4,19c8.2,4.3,16.9,6.5,26.1,6.5c12.8,0,23.7-2.9,32.7-8.8s13.5-14.2,13.5-24.9c0-8.6-4.4-15.9-13.3-21.9
		c-8.9-6-19.9-9.9-32.9-11.8c-18.8-2.6-34-7.8-45.7-15.5C2052,319.7,2046.2,308.5,2046.2,293.9z"/>
	<path class="st0" d="M2217.4,351.5c1.3,8.4,4,16.1,8.2,23.3c4.2,7.2,9.3,13.4,15.5,18.6c6.1,5.2,13.1,9.3,21,12.3
		c7.8,3,16.1,4.5,24.7,4.5c9.7,0,18.7-1.8,27-5.3c8.4-3.5,15.8-8.4,22.3-14.7c2.4-2.4,5.2-3.5,8.6-3.5c3.4,0,6.3,1.2,8.6,3.5
		c2.4,2.4,3.5,5.2,3.5,8.6c0,3.4-1.2,6.3-3.5,8.6c-8.6,9.7-18.4,16.5-29.2,20.6c-10.8,4.1-23.3,6.1-37.4,6.1
		c-13.1,0-25.3-2.4-36.6-7.1c-11.4-4.7-21.4-11.2-30-19.6c-8.6-8.4-15.4-18.3-20.4-29.8c-5-11.5-7.4-24-7.4-37.6
		c0-13.1,2.4-25.3,7.2-36.6c4.8-11.4,11.5-21.3,20-29.8c8.5-8.5,18.5-15.3,30.2-20.4c11.6-5.1,24.2-7.9,37.8-8.4
		c12.3,0,24.1,2.5,35.5,7.4c11.4,5,21.4,11.8,30,20.4c8.6,8.6,15.5,18.6,20.8,30c5.2,11.4,7.8,23.6,7.8,36.6c0,3.9-1.3,6.9-3.9,9
		c-2.6,2.1-5.4,3.1-8.2,3.1H2217.4z M2356.2,327.2c-1.6-8.1-4.4-15.7-8.6-22.7c-4.2-7.1-9.3-13.1-15.5-18.2
		c-6.1-5.1-13.1-9.1-20.8-12.2c-7.7-3-15.9-4.5-24.5-4.5c-8.6,0-16.8,1.5-24.5,4.5c-7.7,3-14.6,7.1-20.8,12.2
		c-6.1,5.1-11.2,11.2-15.3,18.2c-4.1,7.1-6.9,14.6-8.4,22.7H2356.2z"/>
</g>
<path class="st0" d="M358.9,272.2L198.1,112.5c-6.5-6.4-17-6.4-23.4,0L13.5,272.2c-4.8,4.8-4.8,12.5-0.1,17.3
	c2.4,2.4,5.5,3.6,8.7,3.6c3.1,0,6.2-1.2,8.6-3.6l155.6-154.3l101,100.3v186.7H85.1V296.7c0-6.8-5.5-12.2-12.2-12.2
	s-12.2,5.5-12.2,12.2v134.2c0,8.8,7.2,16,16,16h219.3c8.8,0,16-7.2,16-16V260l29.8,29.6c4.8,4.8,12.6,4.7,17.3-0.1
	C363.7,284.7,363.7,277,358.9,272.2z"/>
</svg>
