<?xml version="1.0" encoding="utf-8"?>
<!-- Generator: Adobe Illustrator 22.0.1, SVG Export Plug-In . SVG Version: 6.00 Build 0)  -->
<svg version="1.1" id="Laag_1" xmlns="http://www.w3.org/2000/svg" xmlns:xlink="http://www.w3.org/1999/xlink" x="0px" y="0px"
	 viewBox="0 0 141.7 141.7" style="enable-background:new 0 0 141.7 141.7;" xml:space="preserve">
<style type="text/css">
	.st0{fill:#FFFFFF;}
</style>
<g>
	<path class="st0" d="M133.6,116.4l-30.9-30.9c-4.6,7.1-10.7,13.2-17.8,17.8l30.9,30.9c4.9,4.9,12.9,4.9,17.8,0
		C138.5,129.3,138.5,121.3,133.6,116.4z"/>
	<path class="st0" d="M103.7,53.9c0-27.9-22.6-50.4-50.4-50.4C25.4,3.5,2.8,26,2.8,53.9c0,27.8,22.6,50.4,50.4,50.4
		C81.1,104.3,103.7,81.7,103.7,53.9z M53.2,91.7c-20.9,0-37.8-17-37.8-37.8c0-20.9,17-37.8,37.8-37.8C74.1,16.1,91,33,91,53.9
		C91,74.7,74.1,91.7,53.2,91.7z"/>
	<path class="st0" d="M23.8,53.9h8.4c0-11.6,9.4-21,21-21v-8.4C37,24.5,23.8,37.7,23.8,53.9z"/>
</g>
</svg>
